<?xml version="1.0" standalone="no"?>
<!DOCTYPE svg PUBLIC "-//W3C//DTD SVG 20010904//EN"
 "http://www.w3.org/TR/2001/REC-SVG-20010904/DTD/svg10.dtd">
<svg version="1.0" xmlns="http://www.w3.org/2000/svg"
 width="2264.000000pt" height="2264.000000pt" viewBox="0 0 2264.000000 2264.000000"
 preserveAspectRatio="xMidYMid meet">
<metadata>
Created by potrace 1.14, written by Peter Selinger 2001-2017
</metadata>
<g transform="translate(0.000000,2264.000000) scale(0.100000,-0.100000)"
fill="#000000" stroke="none">
<path d="M11190 22630 c-605 -28 -1108 -80 -1518 -156 -75 -14 -266 -47 -424
-74 -1101 -188 -2122 -524 -3098 -1018 -690 -350 -1291 -735 -1890 -1211 -729
-579 -1185 -1037 -1833 -1843 -415 -515 -781 -1081 -1102 -1703 -48 -93 -116
-224 -150 -290 -160 -304 -407 -900 -545 -1315 -62 -185 -209 -681 -261 -880
-79 -302 -182 -818 -229 -1145 -134 -942 -155 -1877 -60 -2780 61 -583 70
-645 156 -1074 126 -635 289 -1207 518 -1818 372 -996 930 -2007 1565 -2833
371 -483 588 -733 1006 -1159 705 -717 1657 -1438 2540 -1923 832 -457 1784
-837 2630 -1049 749 -188 1142 -247 2190 -324 580 -43 673 -43 1340 6 322 23
915 80 1045 100 755 115 1639 354 2330 631 539 215 978 423 1410 666 1984
1116 3582 2794 4599 4832 155 311 224 467 398 898 207 515 344 941 477 1477
118 480 245 1231 281 1665 64 784 64 1321 -1 2145 -40 505 -149 1137 -295
1699 -209 807 -330 1156 -686 1971 -248 568 -694 1335 -1106 1904 -96 133
-474 609 -611 771 -269 318 -985 1027 -1246 1235 -767 609 -1131 862 -1707
1189 -472 268 -1480 719 -1843 826 -41 12 -187 57 -325 100 -484 152 -581 176
-1060 270 -527 104 -659 124 -1050 165 -425 44 -1040 63 -1445 45z"/>
</g>
</svg>
